<svg width="458" height="458" viewBox="0 0 458 458" fill="none" xmlns="http://www.w3.org/2000/svg">
<g clip-path="url(#clip0_206_185)">
<rect width="458" height="458" fill="#3884F2"/>
<path d="M458 0H0V458H458V0Z" fill="#3884F2"/>
<rect x="-1" y="-16.0137" width="20.3287" height="490.028" fill="#F5F5F5"/>
<rect x="87.3286" y="-16.0137" width="20.3287" height="490.028" fill="#F5F5F5"/>
<rect x="175.657" y="-16.0137" width="20.3287" height="490.028" fill="#F5F5F5"/>
<rect x="263.986" y="-16.0137" width="20.3287" height="490.028" fill="#F5F5F5"/>
<rect x="352.314" y="-16.0137" width="20.3287" height="490.028" fill="#F5F5F5"/>
<rect x="440.643" y="-16.0137" width="20.3287" height="490.028" fill="#F5F5F5"/>
<path d="M238.61 184.438L146.395 399.014L137.756 357.915L92.3219 376.432L238.61 184.438Z" fill="#E7BCDC"/>
<path d="M226.939 184.438L319.154 399.014L327.838 357.915L373.227 376.432L226.939 184.438Z" fill="#E7BCDC"/>
<path d="M242.494 216.339L370.232 194.571C386.369 191.821 394.65 173.667 386.15 159.678L356.434 110.773C349.148 98.7819 332.066 97.9138 323.603 109.104L242.494 216.339Z" fill="#E7BCDC"/>
<path d="M222.706 216.418L94.8839 195.149C78.7368 192.462 70.3841 174.341 78.8296 160.319L108.355 111.298C115.594 99.2786 132.672 98.3438 141.179 109.501L222.706 216.418Z" fill="#E7BCDC"/>
<path d="M253.638 203.01L347.492 120.087C354.111 114.239 354.371 104.002 348.057 97.8256C331.029 86.1993 307.649 92.388 298.603 110.916L253.638 203.01Z" fill="#122D1C"/>
<path d="M211.51 203.094L117.332 120.538C110.691 114.716 110.391 104.48 116.68 98.2793C133.663 86.5865 157.067 92.6838 166.185 111.177L211.51 203.094Z" fill="#122D1C"/>
<circle cx="229.931" cy="213.427" r="39.6388" transform="rotate(-0.111945 229.931 213.427)" fill="#E7BCDC"/>
<circle cx="229.931" cy="213.43" r="24.0942" transform="rotate(-0.111945 229.931 213.43)" fill="#F82400"/>
</g>
<defs>
<clipPath id="clip0_206_185">
<rect width="458" height="458" fill="white"/>
</clipPath>
</defs>
</svg>
