<svg width="458" height="458" viewBox="0 0 458 458" fill="none" xmlns="http://www.w3.org/2000/svg">
<rect width="458" height="458" fill="#122D1C"/>
<path d="M49.7749 64.1452L58.0471 70.4526L66.6021 64.5343L63.1596 74.3508L71.4319 80.6582L61.0321 80.4177L57.5897 90.2341L54.6047 80.2691L44.2049 80.0286L52.7599 74.1103L49.7749 64.1452Z" fill="#F5F5F5"/>
<path d="M63.36 243.263L52.938 251.209L42.1599 243.753L46.4969 256.12L36.0749 264.067L49.1773 263.764L53.5143 276.131L57.275 263.577L70.3774 263.274L59.5993 255.817L63.36 243.263Z" fill="#F5F5F5"/>
<path d="M63.341 390.336L72.0244 396.957L81.0045 390.745L77.391 401.049L86.0744 407.67L75.1577 407.417L71.5442 417.722L68.4109 407.261L57.4943 407.009L66.4744 400.796L63.341 390.336Z" fill="#F5F5F5"/>
<path d="M227.6 38.4104L225.573 49.5952L235.584 54.9792L224.32 56.5078L222.293 67.6926L217.359 57.4526L206.095 58.9812L214.309 51.1238L209.375 40.8838L219.386 46.2677L227.6 38.4104Z" fill="#F5F5F5"/>
<path d="M260.382 394.836L258.512 405.153L267.747 410.119L257.357 411.53L255.487 421.847L250.935 412.401L240.545 413.811L248.122 406.563L243.57 397.117L252.805 402.084L260.382 394.836Z" fill="#F5F5F5"/>
<path d="M372.091 64.4537L380.031 61.1443L379.336 52.5709L384.937 59.0989L392.877 55.7894L388.399 63.1334L394 69.6613L385.632 67.6722L381.154 75.0162L380.46 66.4429L372.091 64.4537Z" fill="#F5F5F5"/>
<path d="M65.0348 156.118L71.3258 156.392L73.5307 150.494L75.2138 156.562L81.5048 156.836L76.2541 160.312L77.9372 166.38L73.0089 162.46L67.7582 165.936L69.9631 160.038L65.0348 156.118Z" fill="#F5F5F5"/>
<path d="M336.035 134.118L342.326 134.392L344.531 128.494L346.214 134.562L352.505 134.836L347.254 138.312L348.937 144.38L344.009 140.46L338.758 143.936L340.963 138.038L336.035 134.118Z" fill="#F5F5F5"/>
<path d="M333.559 332.496L335.222 338.569L341.512 338.864L336.25 342.322L337.914 348.396L332.998 344.46L327.736 347.919L329.96 342.028L325.045 338.092L331.335 338.387L333.559 332.496Z" fill="#F5F5F5"/>
<path d="M411.469 283.406L413.132 289.479L419.422 289.774L414.16 293.233L415.824 299.306L410.908 295.37L405.646 298.829L407.87 292.938L402.955 289.002L409.245 289.297L411.469 283.406Z" fill="#F5F5F5"/>
<path d="M162.379 356.218L166.686 360.811L172.385 358.134L169.348 363.65L173.655 368.244L167.47 367.059L164.433 372.575L163.648 366.327L157.464 365.143L163.163 362.466L162.379 356.218Z" fill="#F5F5F5"/>
<path d="M118.845 22.6846L123.152 27.2781L128.852 24.6011L125.814 30.117L130.121 34.7104L123.937 33.526L120.899 39.0418L120.114 32.7939L113.93 31.6095L119.63 28.9325L118.845 22.6846Z" fill="#F5F5F5"/>
<path d="M328.845 27.6846L333.152 32.2781L338.852 29.6011L335.814 35.117L340.121 39.7104L333.937 38.526L330.899 44.0418L330.114 37.7939L323.93 36.6095L329.63 33.9325L328.845 27.6846Z" fill="#F5F5F5"/>
<path d="M429.163 205.841L419.411 201.776L420.264 191.245L413.384 199.264L403.632 195.199L409.132 204.22L402.252 212.238L412.531 209.795L418.031 218.816L418.884 208.285L429.163 205.841Z" fill="#F5F5F5"/>
<path d="M387.895 383.977L397.683 386.034L402.664 377.36L403.733 387.305L413.522 389.362L404.394 393.451L405.462 403.397L398.752 395.979L389.624 400.069L394.605 391.395L387.895 383.977Z" fill="#F5F5F5"/>
<path d="M302.244 332.061L246.767 285.579L223.347 353.812L205.854 283.782L146.606 325.217L173.786 258.383L101.339 257.194L162.803 219.089L104.833 175.733L177.107 180.906L155.756 111.94L211.234 158.422L234.654 90.1891L252.146 160.219L311.395 118.785L284.215 185.618L356.661 186.807L295.197 224.912L353.167 268.269L280.893 263.096L302.244 332.061Z" fill="#F5F5F5"/>
<ellipse cx="228.507" cy="221.92" rx="43.5" ry="42" transform="rotate(9.27351 228.507 221.92)" fill="#3884F2"/>
</svg>
