<svg width="458" height="458" viewBox="0 0 458 458" fill="none" xmlns="http://www.w3.org/2000/svg">
<g clip-path="url(#clip0_83_1854)">
<rect width="458" height="458" fill="#F82400"/>
<rect width="458" height="458" fill="#122D1C"/>
<rect x="288" width="37" height="458" fill="#E7BCDC"/>
<rect x="288" width="37" height="458" fill="#F82400"/>
<rect x="458" y="128" width="39" height="458" transform="rotate(90 458 128)" fill="#F82400"/>
<path d="M312.084 126.002L232.63 356.556L213.318 343.437L186.025 332.287L312.084 126.002Z" fill="#F5F5F5"/>
<path d="M302.025 125.999L381.523 356.569L400.833 343.454L428.124 332.31L302.025 125.999Z" fill="#F5F5F5"/>
<path d="M315.434 153.031L429.739 132.552C441.578 130.431 447.835 116.553 441.722 105.972L411.496 53.6502C406.257 44.5808 393.748 44.1071 387.539 52.743L315.434 153.031Z" fill="#F5F5F5"/>
<path d="M298.379 153.097L183.995 133.065C172.147 130.99 165.837 117.136 171.908 106.531L201.929 54.0924C207.133 45.0025 219.64 44.48 225.883 53.0916L298.379 153.097Z" fill="#F5F5F5"/>
<path d="M325.037 140.949L406.051 65.6551C411.691 60.4134 411.853 51.2027 406.404 45.5956C391.71 35.0418 371.675 40.453 363.97 57.0561L325.037 140.949Z" fill="#3884F2"/>
<path d="M288.729 141.019L207.422 66.0424C201.761 60.8227 201.563 51.6127 206.99 45.9843C221.642 35.3732 241.699 40.706 249.469 57.2789L288.729 141.019Z" fill="#3884F2"/>
<ellipse cx="304.606" cy="150.388" rx="34.1629" ry="35.9369" transform="rotate(-0.111945 304.606 150.388)" fill="#E7BCDC"/>
<ellipse cx="304.606" cy="150.389" rx="20.7657" ry="21.844" transform="rotate(-0.111945 304.606 150.389)" fill="#F82400"/>
</g>
<defs>
<clipPath id="clip0_83_1854">
<rect width="458" height="458" fill="white"/>
</clipPath>
</defs>
</svg>
