<svg width="458" height="458" viewBox="0 0 458 458" fill="none" xmlns="http://www.w3.org/2000/svg">
<g clip-path="url(#clip0_66_1189)">
<rect width="458" height="458" fill="white"/>
<rect width="458" height="458" fill="#3884F2"/>
<rect x="210" width="37" height="458" fill="#E7BCDC"/>
<rect x="457.5" y="210.5" width="37" height="458" transform="rotate(90 457.5 210.5)" fill="#E7BCDC"/>
<path d="M224.605 232.426L99.2805 431.235L103 354.032L25.7958 357.751L224.605 232.426Z" fill="#F82400"/>
<path d="M221.744 228.17L33.0882 199.557C17.5355 197.198 10.0021 179.208 19.2337 166.471L100.088 54.916C109.32 42.1791 128.762 43.7398 135.843 57.7863L221.744 228.17Z" fill="#F82400"/>
<path d="M230.661 228.17L419.317 199.557C434.869 197.198 442.403 179.208 433.171 166.471L352.317 54.916C343.085 42.1791 323.643 43.7398 316.561 57.7863L230.661 228.17Z" fill="#F82400"/>
<path d="M257.006 208.981L362.992 166.25C375.654 161.145 380.155 145.504 372.143 134.45L363.666 122.754C355.654 111.699 339.389 111.11 330.597 121.555L257.006 208.981Z" fill="#631733"/>
<path d="M204.905 216.981L98.9185 174.25C86.2559 169.145 81.755 153.504 89.7674 142.45L98.2442 130.754C106.257 119.699 122.521 119.11 131.314 129.555L204.905 216.981Z" fill="#631733"/>
<path d="M233.742 232.742L359.067 431.552L359.067 358.067L432.552 358.067L233.742 232.742Z" fill="#F82400"/>
<circle cx="231" cy="227" r="54" fill="#631733"/>
<circle cx="231" cy="227" r="38" fill="#F82400"/>
</g>
<defs>
<clipPath id="clip0_66_1189">
<rect width="458" height="458" fill="white"/>
</clipPath>
</defs>
</svg>
