<svg width="27" height="50" viewBox="0 0 27 50" fill="none" xmlns="http://www.w3.org/2000/svg">
<path d="M21.6174 12.0119C19.618 9.59886 17.136 8.42681 14.1025 8.42681C10.7932 8.49575 9.20747 9.87464 9.34536 12.4256C9.34536 14.4249 10.7932 16.5622 13.7578 18.9753C18.5149 22.9051 21.2037 25.1802 21.8242 25.8007C24.7199 29.0411 26.1677 32.6262 26.1677 36.6249C26.1677 40.5548 24.7888 43.7262 22.0311 46.2771C19.2733 48.7591 15.895 50.0001 11.9652 50.0001C7.41492 50.0001 3.82983 48.6902 1.14101 46.0703L5.00188 38.5554C7.62176 40.6926 9.96586 41.7958 12.1031 41.7958C15.3435 41.5889 17.0671 39.8653 17.2739 36.6249C17.2739 34.0051 15.8261 31.3852 12.9994 28.8343C10.3795 26.5591 7.75964 24.3529 5.13977 22.0777C2.31306 19.1131 0.865234 15.8728 0.865234 12.2877C0.865234 8.77153 2.31306 5.87588 5.27766 3.60072C7.96648 1.46346 11.1379 0.360352 14.723 0.360352C18.5149 0.360352 21.8242 1.60135 24.7199 4.15228L21.6174 12.0119Z" fill="#F82400"/>
</svg>
