<svg width="26" height="50" viewBox="0 0 26 50" fill="none" xmlns="http://www.w3.org/2000/svg">
<path d="M20.7522 11.6516C18.7528 9.23851 16.2708 8.06646 13.2373 8.06646C9.92795 8.1354 8.34224 9.51428 8.48012 12.0652C8.48012 14.0646 9.92795 16.2019 12.8925 18.6149C17.6497 22.5447 20.3385 24.8199 20.959 25.4404C23.8547 28.6807 25.3025 32.2658 25.3025 36.2646C25.3025 40.1944 23.9236 43.3658 21.1658 45.9168C18.4081 48.3988 15.0298 49.6397 11.1 49.6397C6.54969 49.6397 2.9646 48.3298 0.275776 45.7099L4.13665 38.195C6.75652 40.3323 9.10062 41.4354 11.2379 41.4354C14.4783 41.2286 16.2019 39.505 16.4087 36.2646C16.4087 33.6447 14.9609 31.0248 12.1342 28.4739C9.51429 26.1988 6.89441 23.9925 4.27453 21.7174C1.44783 18.7528 0 15.5124 0 11.9273C0 8.41118 1.44783 5.51553 4.41242 3.24037C7.10124 1.1031 10.2727 0 13.8578 0C17.6497 0 20.959 1.24099 23.8547 3.79193L20.7522 11.6516Z" fill="#F82400"/>
</svg>
