<svg width="458" height="458" viewBox="0 0 458 458" fill="none" xmlns="http://www.w3.org/2000/svg">
<g clip-path="url(#clip0_206_649)">
<rect width="458" height="458" fill="#631733"/>
<path d="M387.629 265.832L279.945 201.078C274.732 197.943 267.999 201.052 267.005 207.054L254.197 284.357C253.345 289.502 257.948 293.885 263.045 292.783L387.629 265.832Z" fill="#F5F5F5"/>
<path d="M387.485 265.914L267.315 269.436C259.818 269.655 254.047 276.134 254.693 283.607L256.19 289.199C259.94 303.209 275.083 310.8 288.552 305.421L387.485 265.914Z" fill="#3884F2"/>
<path d="M316.135 367.638L285.779 245.706C284.309 239.803 277.35 237.24 272.403 240.781L208.685 286.387C204.445 289.422 204.6 295.777 208.984 298.601L316.135 367.638Z" fill="#F5F5F5"/>
<path d="M316 368L228.49 285.13C223.047 279.976 214.388 280.467 209.564 286.205L206.631 291.282C199.389 303.817 204.696 319.864 217.983 325.61L316 368Z" fill="#3884F2"/>
<path d="M192.584 388.645L257.338 280.961C260.473 275.747 257.364 269.014 251.362 268.02L174.059 255.213C168.914 254.361 164.531 258.964 165.633 264.061L192.584 388.645Z" fill="#F5F5F5"/>
<path d="M192.5 389L188.978 268.332C188.759 260.835 182.281 255.064 174.808 255.71L169.179 257.217C155.182 260.963 147.59 276.084 152.945 289.548L192.5 389Z" fill="#3884F2"/>
<path d="M90.3645 316.134L212.297 285.778C218.2 284.308 220.762 277.349 217.222 272.402L171.616 208.684C168.581 204.444 162.226 204.599 159.402 208.983L90.3645 316.134Z" fill="#F5F5F5"/>
<path d="M90.5 316L172.896 228.518C178.04 223.056 177.536 214.394 171.794 209.566L166.798 206.68C154.234 199.421 138.151 204.771 132.438 218.108L90.5 316Z" fill="#3884F2"/>
<path d="M69.3566 192.586L177.04 257.34C182.254 260.475 188.987 257.366 189.981 251.364L202.788 174.061C203.64 168.916 199.037 164.533 193.941 165.635L69.3566 192.586Z" fill="#F5F5F5"/>
<path d="M70 192.5L189.668 188.982C197.166 188.762 202.936 182.283 202.29 174.81L200.803 169.254C197.05 155.231 181.884 147.642 168.41 153.044L70 192.5Z" fill="#3884F2"/>
<path d="M141.865 90.3637L172.221 212.296C173.691 218.199 180.65 220.762 185.597 217.221L249.315 171.615C253.555 168.58 253.4 162.225 249.016 159.401L141.865 90.3637Z" fill="#F5F5F5"/>
<path d="M142 90.5L229.441 172.856C234.902 178 243.564 177.496 248.393 171.754L251.277 166.762C258.536 154.196 253.185 138.112 239.845 132.399L142 90.5Z" fill="#3884F2"/>
<path d="M271.831 68.0566L207.077 175.74C203.942 180.954 207.051 187.687 213.052 188.681L290.356 201.488C295.5 202.34 299.884 197.737 298.781 192.641L271.831 68.0566Z" fill="#F5F5F5"/>
<path d="M272 67.9993L275.444 188.367C275.659 195.863 282.135 201.635 289.606 200.989L295.229 199.484C309.228 195.737 316.82 180.613 311.461 167.148L272 67.9993Z" fill="#3884F2"/>
<path d="M367.137 141.411L245.204 171.767C239.301 173.237 236.739 180.196 240.279 185.143L285.885 248.861C288.92 253.101 295.275 252.946 298.099 248.562L367.137 141.411Z" fill="#F5F5F5"/>
<path d="M367 142L284.628 229.048C279.476 234.493 279.969 243.153 285.707 247.978L290.735 250.882C303.287 258.134 319.356 252.802 325.083 239.484L367 142Z" fill="#3884F2"/>
<path d="M387 265.635C361.652 251.793 284.744 203.198 284.144 202.598C278.14 217.44 273.888 256.279 273.888 257.88C273.888 259.481 284.061 263.717 289.147 265.635C304.906 264.384 336.775 261.832 338.176 261.632C339.576 261.432 377.411 268.219 387 265.635Z" fill="#F5F5F5"/>
<circle cx="229.112" cy="231.613" r="42.5249" fill="#122D1C"/>
<rect x="192" y="-151.145" width="24.9806" height="715.071" transform="rotate(-45.6229 192 -151.145)" fill="#122D1C"/>
<rect x="192" y="-82.1445" width="24.9806" height="715.071" transform="rotate(-45.6229 192 -82.1445)" fill="#E7BCDC"/>
<rect x="-96" y="206.855" width="24.9806" height="715.071" transform="rotate(-45.6229 -96 206.855)" fill="#E7BCDC"/>
<rect x="-153" y="221.855" width="24.9806" height="715.071" transform="rotate(-45.6229 -153 221.855)" fill="#122D1C"/>
</g>
<defs>
<clipPath id="clip0_206_649">
<rect width="458" height="458" fill="white"/>
</clipPath>
</defs>
</svg>
