<svg width="458" height="458" viewBox="0 0 458 458" fill="none" xmlns="http://www.w3.org/2000/svg">
<g clip-path="url(#clip0_66_1312)">
<rect width="458" height="458" fill="#E7BCDC"/>
<rect width="458" height="458" fill="#3884F2"/>
<rect x="221" y="-10" width="16" height="486" fill="#F5F5F5"/>
<rect x="472" y="225" width="16" height="486" transform="rotate(90 472 225)" fill="#F5F5F5"/>
<path d="M214.719 331.818C203.746 350.823 179.446 357.334 160.441 346.362C141.437 335.39 134.926 311.089 145.898 292.084C148.34 287.854 154.74 281.566 164.249 274.076C173.449 266.828 184.618 259.165 195.511 252.125C206.381 245.101 216.86 238.772 224.629 234.195C224.922 234.023 225.21 233.853 225.495 233.685C225.493 234.016 225.49 234.351 225.487 234.69C225.408 243.707 225.166 255.947 224.518 268.872C223.868 281.826 222.816 295.33 221.139 306.921C219.407 318.901 217.161 327.588 214.719 331.818Z" stroke="#E7BCDC" stroke-width="16"/>
<path d="M242.067 125.514C253.039 106.509 277.34 99.998 296.344 110.97C315.349 121.942 321.86 146.243 310.888 165.248C308.446 169.478 302.045 175.766 292.537 183.256C283.337 190.504 272.168 198.167 261.275 205.207C250.405 212.231 239.926 218.56 232.157 223.137C231.864 223.309 231.575 223.479 231.29 223.647C231.293 223.316 231.296 222.981 231.299 222.642C231.378 213.625 231.62 201.385 232.268 188.46C232.918 175.506 233.97 162.002 235.646 150.411C237.379 138.431 239.625 129.744 242.067 125.514Z" stroke="#E7BCDC" stroke-width="16"/>
<path d="M116.776 209.294C97.7716 198.322 91.2602 174.021 102.232 155.016C113.205 136.012 137.505 129.501 156.51 140.473C160.74 142.915 167.028 149.316 174.519 158.824C181.766 168.024 189.43 179.193 196.469 190.086C203.493 200.956 209.822 211.435 214.399 219.204C214.572 219.497 214.742 219.786 214.909 220.07C214.579 220.068 214.244 220.065 213.904 220.062C204.887 219.983 192.648 219.741 179.722 219.093C166.769 218.443 153.264 217.391 141.673 215.715C129.693 213.982 121.006 211.736 116.776 209.294Z" stroke="#E7BCDC" stroke-width="16"/>
<path d="M301.281 315.818C320.285 326.79 344.586 320.279 355.558 301.274C366.53 282.27 360.019 257.969 341.014 246.997C336.784 244.554 328.097 242.309 316.118 240.576C304.526 238.899 291.022 237.848 278.069 237.198C265.143 236.549 252.903 236.308 243.886 236.229C243.547 236.226 243.212 236.223 242.881 236.22C243.049 236.505 243.219 236.794 243.391 237.087C247.968 244.856 254.297 255.335 261.322 266.204C268.361 277.097 276.024 288.267 283.272 297.467C290.762 306.975 297.05 313.375 301.281 315.818Z" stroke="#E7BCDC" stroke-width="16"/>
<path d="M146.2 165.247C135.228 146.243 141.739 121.942 160.744 110.97C179.748 99.9974 204.049 106.509 215.021 125.513C217.463 129.744 219.709 138.43 221.442 150.41C223.118 162.001 224.17 175.506 224.82 188.459C225.468 201.385 225.71 213.624 225.789 222.641C225.792 222.981 225.795 223.316 225.798 223.646C225.513 223.479 225.224 223.309 224.931 223.136C217.162 218.56 206.683 212.23 195.813 205.206C184.921 198.167 173.751 190.504 164.551 183.256C155.043 175.765 148.643 169.477 146.2 165.247Z" stroke="#E7BCDC" stroke-width="16"/>
<path d="M311.19 292.083C322.162 311.088 315.651 335.388 296.647 346.36C277.642 357.333 253.342 350.821 242.369 331.817C239.927 327.587 237.681 318.9 235.949 306.92C234.272 295.329 233.22 281.824 232.57 268.871C231.922 255.945 231.68 243.706 231.601 234.689C231.598 234.349 231.595 234.014 231.593 233.684C231.878 233.851 232.166 234.021 232.459 234.194C240.228 238.771 250.707 245.1 261.577 252.124C272.47 259.163 283.639 266.826 292.839 274.074C302.348 281.565 308.748 287.853 311.19 292.083Z" stroke="#E7BCDC" stroke-width="16"/>
<path d="M301.279 141.688C320.283 130.716 344.584 137.227 355.556 156.232C366.528 175.236 360.017 199.537 341.012 210.509C336.782 212.951 328.095 215.197 316.116 216.93C304.524 218.607 291.02 219.658 278.067 220.308C265.141 220.956 252.901 221.198 243.885 221.277C243.545 221.28 243.21 221.283 242.879 221.286C243.047 221.001 243.217 220.712 243.389 220.419C247.966 212.65 254.295 202.171 261.32 191.301C268.359 180.409 276.022 169.239 283.27 160.039C290.76 150.531 297.048 144.131 301.279 141.688Z" stroke="#E7BCDC" stroke-width="16"/>
<path d="M116.774 248.212C97.7699 259.184 91.2585 283.485 102.231 302.489C113.203 321.494 137.504 328.005 156.508 317.033C160.738 314.591 167.026 308.19 174.517 298.682C181.765 289.482 189.428 278.313 196.467 267.42C203.492 256.55 209.821 246.071 214.398 238.302C214.57 238.009 214.74 237.72 214.907 237.436C214.577 237.438 214.242 237.441 213.902 237.444C204.885 237.523 192.646 237.765 179.72 238.413C166.767 239.063 153.262 240.115 141.671 241.791C129.691 243.524 121.005 245.77 116.774 248.212Z" stroke="#E7BCDC" stroke-width="16"/>
<ellipse cx="229.202" cy="229.141" rx="40.0101" ry="38.6304" transform="rotate(12.0671 229.202 229.141)" fill="#122D1C"/>
</g>
<defs>
<clipPath id="clip0_66_1312">
<rect width="458" height="458" fill="white"/>
</clipPath>
</defs>
</svg>
