<svg width="1440" height="276" viewBox="0 0 1440 276" fill="none" xmlns="http://www.w3.org/2000/svg">
<path d="M1252.6 139.567L1312 0.0693359H1357.6L1304.33 128.07H1369.87V0.0693359H1413.17V127.687H1440V172.142H1413.17V275.999H1369.87V171.759H1268.69L1252.6 139.567Z" fill="#3884F2"/>
<path d="M1233.39 231.16V275.999H1070.52V232.31C1070.52 200.885 1080.48 177.124 1100.79 160.645C1104.24 157.962 1122.64 148.382 1156.74 131.136C1177.06 121.172 1187.02 108.142 1187.02 91.6627C1187.02 67.5188 1173.22 49.1235 1149.08 49.1235C1130.3 49.1235 1117.27 57.1715 1110.37 73.2674L1072.05 47.5906C1083.93 15.782 1109.61 0.0693359 1148.7 0.0693359C1173.61 0.0693359 1193.92 9.26699 1209.63 27.6623C1225.34 46.0576 1233.39 67.902 1233.39 92.8124C1233.39 117.339 1223.04 137.651 1202.35 153.364C1183.19 164.477 1164.03 175.975 1144.86 187.088C1124.55 199.735 1114.59 214.681 1115.35 231.16H1233.39Z" fill="#3884F2"/>
<path d="M947.395 0.0693359C980.354 0.0693359 1005.65 15.3988 1022.89 46.0576C1036.69 70.9679 1043.59 101.627 1043.59 137.268C1043.59 172.142 1036.31 202.801 1022.13 228.478C1004.5 260.286 979.587 275.999 947.395 275.999C915.587 275.999 891.06 259.903 873.048 228.095C858.485 201.651 851.203 171.376 851.203 136.885C851.203 101.627 858.101 71.3512 872.281 46.0576C889.527 15.3988 914.82 0.0693359 947.395 0.0693359ZM947.779 46.4409C928.234 46.4409 913.671 57.1715 904.09 79.0159C896.808 95.1118 893.359 114.657 893.359 137.268C893.359 159.879 896.808 179.807 904.09 196.669C913.671 219.28 928.234 230.777 947.779 230.777C967.707 230.777 982.27 219.28 991.851 196.286C998.749 179.807 1002.2 159.495 1002.2 136.118C1002.2 114.274 998.366 95.1118 991.084 78.6327C981.503 57.1715 966.94 46.4409 947.779 46.4409Z" fill="#3884F2"/>
<path d="M824.332 231.16V275.999H661.457V232.31C661.457 200.885 671.421 177.124 691.732 160.645C695.181 157.962 713.577 148.382 747.685 131.136C767.996 121.172 777.96 108.142 777.96 91.6627C777.96 67.5188 764.164 49.1235 740.02 49.1235C721.241 49.1235 708.211 57.1715 701.313 73.2674L662.99 47.5906C674.87 15.782 700.547 0.0693359 739.637 0.0693359C764.547 0.0693359 784.858 9.26699 800.571 27.6623C816.284 46.0576 824.332 67.902 824.332 92.8124C824.332 117.339 813.984 137.651 793.29 153.364C774.128 164.477 754.966 175.975 735.804 187.088C715.493 199.735 705.529 214.681 706.295 231.16H824.332Z" fill="#3884F2"/>
<path d="M487.267 63.6865C476.92 49.5067 463.123 42.2253 446.644 42.2253C427.099 42.2253 412.919 53.3391 404.105 75.95C397.973 92.0459 394.907 111.974 394.907 135.352C394.907 195.52 411.77 225.795 445.878 225.795C463.506 225.795 478.453 215.448 490.716 195.136L520.225 224.645C502.596 258.753 475.387 275.999 438.979 275.999C409.087 275.999 385.71 260.67 369.23 230.011C355.817 205.1 349.302 175.975 349.302 143.4C349.302 100.477 355.051 67.902 366.165 46.0576C381.494 15.3988 408.32 0.0693359 446.644 0.0693359C476.153 0.0693359 499.147 11.9497 515.626 35.327L487.267 63.6865Z" fill="#3884F2"/>
<path d="M322.009 230.394L305.529 275.999H184.044V0.0693359H323.542L305.529 42.6085H227.733V106.226H306.679L291.733 150.298H227.733V230.394H322.009Z" fill="#3884F2"/>
<path d="M-0.837646 0.0693359H63.1627C73.1269 0.0693359 83.8575 3.13523 94.9713 9.26699C106.085 15.0155 115.283 21.9138 121.798 29.9617C141.343 53.7223 151.307 92.0459 151.307 144.549C151.307 180.573 143.259 210.466 126.78 234.61C108.001 262.203 81.1748 275.999 46.6836 275.999H-0.837646V0.0693359ZM44.0009 224.645C84.2407 222.729 104.552 195.136 104.552 141.1C104.552 78.6327 84.2407 46.8241 44.0009 46.0576V224.645Z" fill="#3884F2"/>
</svg>
