<svg width="1426" height="277" viewBox="0 0 1426 277" fill="none" xmlns="http://www.w3.org/2000/svg">
<path d="M0.162361 1.06199H64.1647C74.1291 1.06199 84.86 4.12797 95.9742 10.2599C107.088 16.0086 116.286 22.9071 122.801 30.9553C142.347 54.7166 152.312 93.0413 152.312 145.546C152.312 181.571 144.263 211.465 127.784 235.609C109.005 263.203 82.1773 277 47.685 277H0.162361V1.06199ZM45.0023 225.645C85.2433 223.729 105.555 196.135 105.555 142.097C105.555 79.6277 85.2433 47.8181 45.0023 47.0517V225.645ZM323.018 231.394L306.539 277H185.049V1.06199H324.551L306.539 43.6024H228.739V107.221H307.688L292.742 151.295H228.739V231.394H323.018ZM488.282 64.681C477.934 50.5009 464.137 43.2192 447.657 43.2192C428.112 43.2192 413.932 54.3334 405.117 76.9449C398.985 93.0413 395.919 112.97 395.919 136.348C395.919 196.518 412.782 226.795 446.891 226.795C464.52 226.795 479.467 216.447 491.731 196.135L521.241 225.645C503.611 259.754 476.401 277 439.992 277C410.099 277 386.721 261.67 370.241 231.01C356.828 206.099 350.313 176.972 350.313 144.396C350.313 101.473 356.061 68.8967 367.175 47.0517C382.505 16.3919 409.333 1.06199 447.657 1.06199C477.167 1.06199 500.162 12.9427 516.642 36.3207L488.282 64.681ZM825.356 232.16V277H662.476V233.31C662.476 201.884 672.441 178.122 692.753 161.643C696.202 158.96 714.598 149.379 748.707 132.133C769.019 122.168 778.984 109.138 778.984 92.6581C778.984 68.5135 765.187 50.1176 741.042 50.1176C722.263 50.1176 709.233 58.1658 702.334 74.2622L664.009 48.5846C675.89 16.7751 701.568 1.06199 740.659 1.06199C765.57 1.06199 785.882 10.2599 801.595 28.6558C817.308 47.0517 825.356 68.8967 825.356 93.8078C825.356 118.336 815.009 138.648 794.313 154.361C775.151 165.475 755.989 176.972 736.826 188.087C716.514 200.734 706.55 215.68 707.316 232.16H825.356ZM948.424 1.06199C981.383 1.06199 1006.68 16.3919 1023.92 47.0517C1037.72 71.9627 1044.62 102.623 1044.62 138.264C1044.62 173.14 1037.34 203.8 1023.16 229.477C1005.53 261.287 980.617 277 948.424 277C916.614 277 892.086 260.904 874.074 229.094C859.51 202.65 852.229 172.374 852.229 137.881C852.229 102.623 859.127 72.346 873.307 47.0517C890.553 16.3919 915.848 1.06199 948.424 1.06199ZM948.807 47.4349C929.261 47.4349 914.698 58.1658 905.117 80.0109C897.835 96.1073 894.386 115.653 894.386 138.264C894.386 160.876 897.835 180.805 905.117 197.668C914.698 220.279 929.261 231.777 948.807 231.777C968.736 231.777 983.299 220.279 992.88 197.285C999.779 180.805 1003.23 160.493 1003.23 137.115C1003.23 115.27 999.396 96.1073 992.114 79.6277C982.533 58.1658 967.969 47.4349 948.807 47.4349ZM1234.43 232.16V277H1071.55V233.31C1071.55 201.884 1081.51 178.122 1101.82 161.643C1105.27 158.96 1123.67 149.379 1157.78 132.133C1178.09 122.168 1188.06 109.138 1188.06 92.6581C1188.06 68.5135 1174.26 50.1176 1150.11 50.1176C1131.33 50.1176 1118.3 58.1658 1111.41 74.2622L1073.08 48.5846C1084.96 16.7751 1110.64 1.06199 1149.73 1.06199C1174.64 1.06199 1194.95 10.2599 1210.67 28.6558C1226.38 47.0517 1234.43 68.8967 1234.43 93.8078C1234.43 118.336 1224.08 138.648 1203.38 154.361C1184.22 165.475 1165.06 176.972 1145.9 188.087C1125.59 200.734 1115.62 215.68 1116.39 232.16H1234.43ZM1411.92 44.7522H1307.29V96.8738C1318.4 93.4246 1330.28 91.8916 1343.7 91.8916C1367.46 91.8916 1387.39 101.473 1403.1 120.252C1418.05 138.264 1425.71 159.343 1425.71 183.488C1425.71 208.399 1417.67 229.861 1401.19 248.256C1384.32 267.419 1363.63 277 1339.1 277C1323.77 277 1308.82 272.401 1294.26 263.586C1279.7 254.772 1268.58 243.274 1261.3 229.477L1300.01 204.183C1309.59 219.513 1323.39 227.178 1341.4 227.178C1367.08 227.178 1380.11 212.231 1380.11 182.338C1380.11 168.541 1376.66 157.427 1369.76 148.995C1362.09 139.797 1351.36 135.199 1337.95 135.199C1323 135.199 1309.97 139.797 1299.24 148.995L1262.83 135.965V0.295481H1411.92V44.7522Z" fill="#3884F2"/>
</svg>
